<svg width="18" height="20" viewBox="0 0 18 20" fill="none" xmlns="http://www.w3.org/2000/svg">
<path d="M17.5086 17.465L13.1786 12.965C14.2886 11.645 14.8986 9.975 14.8986 8.245C14.9086 4.205 11.6086 0.915 7.56865 0.915C3.52865 0.915 0.228648 4.205 0.228648 8.255C0.228648 12.305 3.51865 15.595 7.56865 15.595C9.08865 15.595 10.5386 15.135 11.7686 14.265L16.1286 18.795C16.3086 18.985 16.5586 19.085 16.8186 19.085C17.0686 19.085 17.2986 18.995 17.4786 18.815C17.8586 18.445 17.8686 17.845 17.5086 17.465ZM7.56865 2.825C10.5586 2.825 12.9886 5.255 12.9886 8.245C12.9886 11.235 10.5586 13.665 7.56865 13.665C4.57865 13.665 2.13865 11.245 2.13865 8.255C2.13865 5.265 4.57865 2.825 7.56865 2.825Z" fill="black"/>
</svg>
